<svg width="512" height="512" viewBox="0 0 512 512" fill="none" xmlns="http://www.w3.org/2000/svg">
<path d="M256 127.999C253.952 127.999 251.905 127.218 250.343 125.656C247.219 122.531 247.219 117.467 250.343 114.342L346.343 18.3422C349.468 15.2192 354.532 15.2192 357.657 18.3422C360.781 21.4672 360.781 26.5312 357.657 29.6562L261.657 125.656C260.095 127.218 258.048 127.999 256 127.999Z" fill="#2D474C" id="id_117"></path>
<path d="M256 127.999C253.952 127.999 251.905 127.218 250.343 125.656L154.343 29.6562C151.219 26.5312 151.219 21.4672 154.343 18.3422C157.468 15.2192 162.532 15.2192 165.657 18.3422L261.657 114.342C264.781 117.467 264.781 122.531 261.657 125.656C260.095 127.218 258.048 127.999 256 127.999Z" fill="#2D474C" id="id_118"></path>
<path d="M473 488H39C30.716 488 24 481.284 24 473V215C24 206.716 30.716 200 39 200H473C481.284 200 488 206.716 488 215V473C488 481.284 481.284 488 473 488Z" fill="#c21170" id="id_119"></path>
<path d="M473 200H449C457.284 200 464 206.716 464 215V473C464 481.284 457.284 488 449 488H473C481.284 488 488 481.284 488 473V215C488 206.716 481.284 200 473 200Z" fill="#b03361" id="id_120"></path>
<path d="M456 232H344V456H456V232Z" fill="#F8D371" id="id_121"></path>
<path d="M273.483 456H94.517C73.245 456 56 438.755 56 417.483V270.517C56 249.245 73.245 232 94.517 232H273.483C294.755 232 312 249.245 312 270.517V417.483C312 438.755 294.755 456 273.483 456Z" fill="#02030a" id="id_122"></path>
<path d="M400 400C413.255 400 424 389.255 424 376C424 362.745 413.255 352 400 352C386.745 352 376 362.745 376 376C376 389.255 386.745 400 400 400Z" fill="#DE6B66" id="id_123"></path>
<path d="M424 432H376C371.582 432 368 428.418 368 424C368 419.582 371.582 416 376 416H424C428.418 416 432 419.582 432 424C432 428.418 428.418 432 424 432Z" fill="#598E97" id="id_124"></path>
<path d="M456 232H344V328H456V232Z" fill="#974946" id="id_125"></path>
<path d="M88 295.999C85.952 295.999 83.905 295.218 82.343 293.656C79.219 290.531 79.219 285.467 82.343 282.342L102.343 262.342C105.468 259.219 110.532 259.219 113.657 262.342C116.781 265.467 116.781 270.531 113.657 273.656L93.657 293.656C92.095 295.218 90.048 295.999 88 295.999Z" fill="#F8D371" id="id_126"></path>
<path d="M88 343.999C85.952 343.999 83.905 343.218 82.343 341.656C79.219 338.531 79.219 333.467 82.343 330.342L154.343 258.342C157.468 255.219 162.532 255.219 165.657 258.342C168.781 261.467 168.781 266.531 165.657 269.656L93.657 341.656C92.095 343.218 90.048 343.999 88 343.999Z" fill="#F8D371" id="id_127"></path>
<path d="M296 168H216V139.97C216 128.941 224.941 120 235.97 120H276.03C287.059 120 296 128.941 296 139.97V168Z" fill="#974946" id="id_128"></path>
<path d="M328 168H184V200H328V168Z" fill="#DE6B66" id="id_129"></path>
<path d="M328 168H320V200H328V168Z" fill="#AA524E" id="id_130"></path>
<path d="M128 351.999C125.952 351.999 123.905 351.218 122.343 349.656C119.219 346.531 119.219 341.467 122.343 338.342L162.343 298.342C165.468 295.219 170.532 295.219 173.657 298.342C176.781 301.467 176.781 306.531 173.657 309.656L133.657 349.656C132.095 351.218 130.048 351.999 128 351.999Z" fill="#F8D371" id="id_131"></path>
<path d="M400 304C413.255 304 424 293.255 424 280C424 266.745 413.255 256 400 256C386.745 256 376 266.745 376 280C376 293.255 386.745 304 400 304Z" fill="#F8D371" id="id_132"></path>
</svg>