<svg xmlns="http://www.w3.org/2000/svg" xmlns:xlink="http://www.w3.org/1999/xlink" viewBox="0,0,256,256" width="100px" height="100px" fill-rule="nonzero"><g fill="none" fill-rule="nonzero" stroke="none" stroke-width="1" stroke-linecap="butt" stroke-linejoin="miter" stroke-miterlimit="10" stroke-dasharray="" stroke-dashoffset="0" font-family="none" font-weight="none" font-size="none" text-anchor="none" style="mix-blend-mode: normal"><g transform="scale(2.56,2.56)"><path d="M87.2,56.7c1.1,-2.2 1.8,-4.6 1.8,-7.2c0,-6.6 -4.2,-12.3 -10,-14.5v0c0,-11.6 -9.4,-21 -21,-21c-9.8,0 -18,6.7 -20.3,15.8c-1.5,-0.5 -3,-0.8 -4.7,-0.8c-7.7,0 -14,5.8 -14.9,13.3c-5.2,1.1 -9.1,5.7 -9.1,11.2c0,6.4 5.1,11.5 11.5,11.5c0.2,0 0.4,0 0.5,0c0,0.2 0,0.3 0,0.5c0,11.3 9.2,20.5 20.5,20.5c6.4,0 12.2,-3 15.9,-7.6c2.2,2.2 5.2,3.6 8.6,3.6c4.7,0 8.7,-2.7 10.7,-6.5c1.1,0.3 2.2,0.5 3.3,0.5c6.1,0 11,-4.9 11,-11c0,-3.3 -1.5,-6.3 -3.8,-8.3z" fill="#42db4c"></path><path d="M79.9,36.5c0,0 3.6,0 6.1,0c2.5,0 4.5,-2 4.5,-4.5c0,-2.3 -1.8,-4.2 -4.1,-4.5c0,-0.2 0.1,-0.4 0.1,-0.5c0,-2.5 -2,-4.5 -4.5,-4.5c-1.4,0 -2.7,0.7 -3.5,1.7c-0.1,-2.6 -2.3,-4.7 -5,-4.7c-2.8,0 -5,2.2 -5,5c0,0.4 0.1,0.9 0.2,1.3c-0.7,-0.8 -1.6,-1.3 -2.7,-1.3c-1.8,0 -3.2,1.3 -3.5,3.1c-0.2,0 -0.4,-0.1 -0.5,-0.1c-2.5,0 -4.5,2 -4.5,4.5c0,2.5 2,4.5 4.5,4.5c2.5,0 9.5,0 9.5,0h5.4v0.5h3z" fill="#fdfcef"></path><path d="M73.5,19c-3,0 -5.5,2.5 -5.5,5.5v0c-0.6,-0.4 -1.3,-0.5 -2,-0.5c-1.8,0 -3.4,1.3 -3.9,3h-0.1c-2.8,0 -5,2.2 -5,5c0,2.8 2.2,5 5,5h14.9c0.3,0 0.5,-0.2 0.5,-0.5c0,-0.3 -0.2,-0.5 -0.5,-0.5h-14.9c-2.2,0 -4,-1.8 -4,-4c0,-2.2 1.8,-4 4,-4c0.1,0 0.2,0 0.3,0h0.1c0,0 0,0 0.1,0c0.2,0 0.5,-0.2 0.5,-0.4c0.2,-1.5 1.5,-2.6 3,-2.6c0.9,0 1.7,0.4 2.3,1.1c0.1,0.1 0.2,0.2 0.4,0.2c0.1,0 0.2,0 0.2,-0.1c0.2,-0.1 0.3,-0.3 0.3,-0.6c-0.1,-0.4 -0.2,-0.8 -0.2,-1.2c0,-2.5 2,-4.5 4.5,-4.5c2.4,0 4.3,1.9 4.5,4.3c0,0.2 0.2,0.4 0.3,0.5c0.1,0 0.1,0 0.2,0c0.2,0 0.3,-0.1 0.4,-0.2c0.8,-1 1.9,-1.5 3.1,-1.5c2.2,0 4,1.8 4,4c0,0.1 0,0.2 0,0.3v0.1c0,0.1 0,0.3 0.1,0.4c0.1,0.1 0.2,0.2 0.3,0.2c2.1,0.2 3.6,1.9 3.6,4c0,2.2 -1.8,4 -4,4h-6.1c-0.3,0 -0.5,0.2 -0.5,0.5c0,0.3 0.2,0.5 0.5,0.5h6.1c2.8,0 5,-2.2 5,-5c0,-2.4 -1.7,-4.4 -4,-4.9v-0.1c0,-2.8 -2.2,-5 -5,-5c-1.2,0 -2.3,0.4 -3.2,1.2c-0.6,-2.4 -2.7,-4.2 -5.3,-4.2z" fill="#472b29"></path><path d="M72,26c-1.4,0 -2.6,1 -2.9,2.3c-0.4,-0.2 -0.8,-0.3 -1.2,-0.3c-1.2,0 -2.2,0.9 -2.4,2.1c-0.2,0 -0.4,-0.1 -0.6,-0.1c-1.5,0 -2.8,1.2 -2.9,2.7c0,0.1 0.1,0.3 0.2,0.3v0c0.1,0 0.2,-0.1 0.2,-0.2c0.1,-1.3 1.2,-2.3 2.4,-2.3c0.2,0 0.5,0 0.7,0.1c0,0 0,0 0.1,0c0.1,0 0.1,0 0.2,-0.1c0.1,0 0.1,-0.1 0.1,-0.2c0,-1 0.8,-1.9 1.9,-1.9c0.4,0 0.9,0.2 1.2,0.5c0,0 0.1,0.1 0.2,0.1h0.1c0.1,0 0.1,-0.1 0.2,-0.2c0.1,-1.3 1.2,-2.3 2.5,-2.3c0.2,0 0.4,0 0.7,0.1c0,0 0,0 0.1,0c0.1,0 0.2,-0.1 0.2,-0.2c0,-0.1 0,-0.3 -0.2,-0.3c-0.3,-0.1 -0.5,-0.1 -0.8,-0.1zM85.9,27.5c-1.3,0 -2.5,0.9 -2.9,2.2c0,0.1 0,0.3 0.2,0.3c0,0 0,0 0.1,0c0.1,0 0.2,-0.1 0.2,-0.2c0.3,-1.1 1.3,-1.8 2.4,-1.8c0.1,0 0.2,0 0.3,0v0c0.1,0 0.2,-0.1 0.2,-0.2c0,-0.1 -0.1,-0.3 -0.2,-0.3c0,0 -0.2,0 -0.3,0z" fill="#472b29"></path><path d="M15.4,51h-9.9c-0.3,0 -0.5,-0.2 -0.5,-0.5c0,-0.3 0.2,-0.5 0.5,-0.5h9.9c0.3,0 0.5,0.2 0.5,0.5c0,0.3 -0.2,0.5 -0.5,0.5zM18.5,51h-1c-0.3,0 -0.5,-0.2 -0.5,-0.5c0,-0.3 0.2,-0.5 0.5,-0.5h1c0.3,0 0.5,0.2 0.5,0.5c0,0.3 -0.2,0.5 -0.5,0.5zM23.5,53h-9c-0.3,0 -0.5,-0.2 -0.5,-0.5c0,-0.3 0.2,-0.5 0.5,-0.5h9c0.3,0 0.5,0.2 0.5,0.5c0,0.3 -0.2,0.5 -0.5,0.5zM12.5,53h-1c-0.3,0 -0.5,-0.2 -0.5,-0.5c0,-0.3 0.2,-0.5 0.5,-0.5h1c0.3,0 0.5,0.2 0.5,0.5c0,0.3 -0.2,0.5 -0.5,0.5zM9.5,53h-2c-0.3,0 -0.5,-0.2 -0.5,-0.5c0,-0.3 0.2,-0.5 0.5,-0.5h2c0.3,0 0.5,0.2 0.5,0.5c0,0.3 -0.2,0.5 -0.5,0.5zM15.5,55h-2c-0.3,0 -0.5,-0.2 -0.5,-0.5c0,-0.3 0.2,-0.5 0.5,-0.5h2c0.3,0 0.5,0.2 0.5,0.5c0,0.3 -0.2,0.5 -0.5,0.5zM18.5,46c-0.2,0 -0.8,0 -1,0c-0.3,0 -0.5,0.2 -0.5,0.5c0,0.3 0.2,0.5 0.5,0.5c0.2,0 0.8,0 1,0c0.3,0 0.5,-0.2 0.5,-0.5c0,-0.3 -0.2,-0.5 -0.5,-0.5zM18.5,48c-0.2,0 -4.8,0 -5,0c-0.3,0 -0.5,0.2 -0.5,0.5c0,0.3 0.2,0.5 0.5,0.5c0.2,0 4.8,0 5,0c0.3,0 0.5,-0.2 0.5,-0.5c0,-0.3 -0.2,-0.5 -0.5,-0.5zM23.5,50c-0.2,0 -2.8,0 -3,0c-0.3,0 -0.5,0.2 -0.5,0.5c0,0.3 0.2,0.5 0.5,0.5c0.2,0 2.8,0 3,0c0.3,0 0.5,-0.2 0.5,-0.5c0,-0.3 -0.2,-0.5 -0.5,-0.5zM86.5,61h-10c-0.3,0 -0.5,-0.2 -0.5,-0.5c0,-0.3 0.2,-0.5 0.5,-0.5h10c0.3,0 0.5,0.2 0.5,0.5c0,0.3 -0.2,0.5 -0.5,0.5zM90.5,61h-2c-0.3,0 -0.5,-0.2 -0.5,-0.5c0,-0.3 0.2,-0.5 0.5,-0.5h2c0.3,0 0.5,0.2 0.5,0.5c0,0.3 -0.2,0.5 -0.5,0.5zM95.5,63h-10c-0.3,0 -0.5,-0.2 -0.5,-0.5c0,-0.3 0.2,-0.5 0.5,-0.5h10c0.3,0 0.5,0.2 0.5,0.5c0,0.3 -0.2,0.5 -0.5,0.5zM83.5,63h-1c-0.3,0 -0.5,-0.2 -0.5,-0.5c0,-0.3 0.2,-0.5 0.5,-0.5h1c0.3,0 0.5,0.2 0.5,0.5c0,0.3 -0.2,0.5 -0.5,0.5zM80.4,63h-1.9c-0.3,0 -0.5,-0.2 -0.5,-0.5c0,-0.3 0.2,-0.5 0.5,-0.5h1.9c0.3,0 0.5,0.2 0.5,0.5c0,0.3 -0.2,0.5 -0.5,0.5zM89.5,59h-5c-0.3,0 -0.5,-0.2 -0.5,-0.5c0,-0.3 0.2,-0.5 0.5,-0.5h5c0.3,0 0.5,0.2 0.5,0.5c0,0.3 -0.2,0.5 -0.5,0.5zM86.5,65h-2c-0.3,0 -0.5,-0.2 -0.5,-0.5c0,-0.3 0.2,-0.5 0.5,-0.5h2c0.3,0 0.5,0.2 0.5,0.5c0,0.3 -0.2,0.5 -0.5,0.5z" fill="#ffffff"></path><g><path d="M29.7,30.7h43.6v7.6h-43.6z" fill="#3392fa"></path><path d="M72.6,31.4v6.2h-42.2v-6.2l42.2,0M74,30h-45v9h45v-9z" fill="#472b29"></path></g><g><path d="M29.7,45.7h43.6v7.6h-43.6z" fill="#3392fa"></path><path d="M72.6,46.4v6.2h-42.2v-6.2h42.2M74,45h-45v9h45v-9z" fill="#472b29"></path></g><g><path d="M29.7,60.7h43.6v7.6h-43.6z" fill="#3392fa"></path><path d="M72.6,61.4v6.2h-42.2v-6.2l42.2,0M74,60h-45v9h45v-9z" fill="#472b29"></path></g><g fill="#472b29"><path d="M59.5,51h-30c-0.3,0 -0.5,-0.2 -0.5,-0.5c0,-0.3 0.2,-0.5 0.5,-0.5h30c0.3,0 0.5,0.2 0.5,0.5c0,0.3 -0.2,0.5 -0.5,0.5z"></path></g><g fill="#472b29"><path d="M69.6,51h-0.9c-0.3,0 -0.5,-0.2 -0.5,-0.5c0,-0.3 0.2,-0.5 0.5,-0.5h0.9c0.3,0 0.5,0.2 0.5,0.5c0,0.3 -0.2,0.5 -0.5,0.5z"></path></g><g fill="#472b29"><path d="M72.5,66h-39c-0.3,0 -0.5,-0.2 -0.5,-0.5c0,-0.3 0.2,-0.5 0.5,-0.5h39c0.3,0 0.5,0.2 0.5,0.5c0,0.3 -0.2,0.5 -0.5,0.5z"></path></g><g fill="#472b29"><path d="M31.4,69h-0.9c-0.3,0 -0.5,-0.2 -0.5,-0.5c0,-0.3 0.2,-0.5 0.5,-0.5h0.9c0.3,0 0.5,0.2 0.5,0.5c0,0.3 -0.2,0.5 -0.5,0.5z"></path></g><g fill="#472b29"><path d="M65.5,35h-36c-0.3,0 -0.5,-0.2 -0.5,-0.5c0,-0.3 0.2,-0.5 0.5,-0.5h36c0.3,0 0.5,0.2 0.5,0.5c0,0.3 -0.2,0.5 -0.5,0.5z"></path></g><g fill="#472b29"><path d="M69.5,35h-0.9c-0.3,0 -0.5,-0.2 -0.5,-0.5c0,-0.3 0.2,-0.5 0.5,-0.5h0.9c0.3,0 0.5,0.2 0.5,0.5c0,0.3 -0.2,0.5 -0.5,0.5z"></path></g><g fill="#472b29"><path d="M65.9,51h-3.4c-0.3,0 -0.5,-0.2 -0.5,-0.5c0,-0.3 0.2,-0.5 0.5,-0.5h3.4c0.3,0 0.5,0.2 0.5,0.5c0,0.3 -0.2,0.5 -0.5,0.5z"></path></g><g><path d="M37.5,76.5c0,0 1.6,0 3.5,0c1.9,0 3.5,-1.6 3.5,-3.5c0,-1.8 -1.3,-3.2 -3.1,-3.5c0,-0.2 0.1,-0.4 0.1,-0.5c0,-1.9 -1.6,-3.5 -3.5,-3.5c-1,0 -2,0.5 -2.6,1.2c-0.4,-1.8 -2,-3.2 -3.9,-3.2c-2.2,0 -4,1.8 -4,4c0,0.2 0,0.4 0.1,0.6c-0.4,-0.3 -1,-0.6 -1.6,-0.6c-1.2,0 -2.2,0.9 -2.5,2.1c-0.2,0 -0.4,-0.1 -0.5,-0.1c-1.9,0 -3.5,1.6 -3.5,3.5c0,1.9 1.6,3.5 3.5,3.5c1.9,0 7.5,0 7.5,0v0.5h7z" fill="#fdfcef"></path><path d="M39.3,72c-0.1,0 -0.3,-0.1 -0.3,-0.3c0,-1.2 1,-2.2 2.2,-2.2c0,0 0.7,0 1.2,0.1c0.1,0 0.2,0.2 0.2,0.3c0,0.1 -0.2,0.2 -0.3,0.2c-0.4,-0.1 -1.1,-0.1 -1.1,-0.1c-0.9,0 -1.7,0.8 -1.7,1.7c0,0.2 -0.1,0.3 -0.2,0.3zM32.5,76c-0.27614,0 -0.5,0.22386 -0.5,0.5c0,0.27614 0.22386,0.5 0.5,0.5c0.27614,0 0.5,-0.22386 0.5,-0.5c0,-0.27614 -0.22386,-0.5 -0.5,-0.5z" fill="#472b29"></path><path d="M41,77h-3.5c-0.3,0 -0.5,-0.2 -0.5,-0.5c0,-0.3 0.2,-0.5 0.5,-0.5h3.5c1.7,0 3,-1.3 3,-3c0,-1.5 -1.1,-2.8 -2.6,-3c-0.1,0 -0.3,-0.1 -0.3,-0.2c0,-0.1 -0.1,-0.2 -0.1,-0.4c0,-0.2 0,-0.3 0,-0.5c0,-1.7 -1.3,-3 -3,-3c-0.8,0 -1.6,0.4 -2.2,1c-0.1,0.1 -0.3,0.2 -0.5,0.1c-0.2,0 -0.3,-0.2 -0.4,-0.4c-0.3,-1.6 -1.8,-2.8 -3.4,-2.8c-1.9,0 -3.5,1.6 -3.5,3.5c0,0.1 0,0.3 0,0.4c0,0.2 -0.1,0.4 -0.2,0.5c-0.1,0.1 -0.4,0.1 -0.6,0c-0.3,0 -0.8,-0.2 -1.2,-0.2c-1,0 -1.8,0.7 -2,1.6c0,0.3 -0.3,0.4 -0.6,0.4c-0.2,0 -0.3,0 -0.5,0c-1.7,0 -3,1.3 -3,3c0,1.7 1.3,3 3,3h7.5c0.3,0 0.5,0.2 0.5,0.5c0,0.3 -0.1,0.5 -0.4,0.5h-7.5c-2.2,0 -4,-1.8 -4,-4c0,-2.2 1.8,-4 4,-4c0.1,0 0.1,0 0.2,0c0.4,-1.2 1.5,-2 2.8,-2c0.3,0 0.7,0.1 1,0.2c0.2,-2.3 2.1,-4.2 4.5,-4.2c1.8,0 3.5,1.1 4.2,2.8c0.7,-0.5 1.5,-0.8 2.3,-0.8c2.2,0 4,1.8 4,4v0.1c1.7,0.4 3,2 3,3.9c0,2.2 -1.8,4 -4,4z" fill="#472b29"></path><path d="M35.5,76c-0.2,0 -0.8,0 -1,0c-0.3,0 -0.5,0.2 -0.5,0.5c0,0.3 0.2,0.5 0.5,0.5c0.2,0 0.8,0 1,0c0.3,0 0.5,-0.2 0.5,-0.5c0,-0.3 -0.2,-0.5 -0.5,-0.5z" fill="#472b29"></path></g></g></g></svg>